<?xml version="1.0" encoding="utf-8"?>
<!-- Generator: Adobe Illustrator 24.3.0, SVG Export Plug-In . SVG Version: 6.00 Build 0)  -->
<svg version="1.1" id="Layer_1" xmlns="http://www.w3.org/2000/svg" xmlns:xlink="http://www.w3.org/1999/xlink" x="0px" y="0px"
	 viewBox="0 0 1000 1000" style="enable-background:new 0 0 1000 1000;" xml:space="preserve">
<style type="text/css">
	.st0{fill:#6D6E71;}
	.st1{fill:#032833;}
	.st2{fill:#414042;}
	.st3{fill:#F7941D;}
	.st4{fill:#FEFEFE;}
	.st5{opacity:0.54;fill:#032833;}
</style>
<g>
	<path class="st0" d="M-557.02,989.48c-2.92-0.33-68.42-8.25-97.49-55.19c-22.95-6.92-34.51-20.82-40.25-31.86
		c-11.62-22.32-10.46-52.68,3.25-88.26c-12.69-16.32-25.55-28.4-38.04-40.14c-14.98-14.08-30.38-28.55-43.69-49.06
		c-24.42,10.44-55.04,20.36-83.29,20.36c-4.95,0-9.78-0.3-14.35-0.9l-13.59-1.77l-2.19-13.52c-3.7-22.88-1.82-41.75,2.31-56.7
		c-59.61-7.37-97.8-41.7-125.08-110.81c-7.37-18.66-12.15-37.27-14.27-55.48l-0.88-0.33l-0.34-12.41c-0.12-4.3-0.18-8.67-0.18-12.99
		c0-125.57,48.9-243.63,137.7-332.43s206.85-137.7,332.43-137.7c125.58,0,243.64,48.9,332.44,137.7
		c88.8,88.8,137.7,206.85,137.7,332.43c0,4.31-0.06,8.68-0.18,12.99l-0.36,13.19l-0.95,0.29c-2.16,17.97-6.92,36.33-14.18,54.73
		c-27.28,69.11-65.47,103.44-125.08,110.81c4.13,14.96,6.02,33.82,2.32,56.7l-2.19,13.53l-13.59,1.77c-4.57,0.6-9.4,0.9-14.35,0.9
		c-28.25,0-58.87-9.91-83.29-20.35c-13.31,20.51-28.71,34.98-43.69,49.06c-12.49,11.74-25.34,23.82-38.04,40.14
		c13.71,35.58,14.87,65.95,3.25,88.26c-5.74,11.03-17.3,24.93-40.25,31.86c-29.07,46.94-94.57,54.86-97.49,55.19l-2.06,0.23
		L-557.02,989.48z"/>
	<path class="st1" d="M-103.22,480.41c0,4.17-0.06,8.35-0.17,12.49l-263.9,81l-360.88,22.92l-278.36-103.92
		c-0.11-4.15-0.17-8.32-0.17-12.49c0-249.48,202.25-451.73,451.73-451.73C-305.47,28.68-103.22,230.93-103.22,480.41z"/>
	<circle class="st1" cx="-554.96" cy="480.41" r="304.48"/>
	<circle class="st2" cx="-554.96" cy="480.41" r="283.44"/>
	<path id="SVGID_x5F_1_x5F_" class="st1" d="M-235.43,497.9c-9.66,176.47-160.54,311.7-337.01,302.04
		c-176.47-9.66-311.7-160.54-302.04-337.01c9.66-176.47,160.54-311.7,337.01-302.04C-361.01,170.54-225.78,321.43-235.43,497.9z"/>
	<text>	<textPath  xlink:href="#SVGID_x5F_1_x5F_" startOffset="75.8317%">
<tspan  class="st3" style="font-family:'DarkDominionExpanded'; font-size:136.2983px; letter-spacing:100;">buffaloswap</tspan>	</textPath>
</text>
	<path class="st3" d="M-554.96,241.48c140.99,0,255.99,111.2,262.13,250.67c0.17-3.89,0.27-7.8,0.27-11.74
		c0-144.92-117.48-262.41-262.41-262.41c-144.92,0-262.41,117.48-262.41,262.41c0,3.93,0.1,7.84,0.27,11.74
		C-810.95,352.67-695.95,241.48-554.96,241.48z"/>
	<g>
		<g>
			<path class="st1" d="M-244.1,339.93c46.67,57.72,52.81,164.57-20.88,153.52c-73.69-11.05-71.23-125.27-133.87-163.34
				s-120.63-34.39-156.11,35.62c-35.48-70-93.48-73.69-156.11-35.62c-62.64,38.07-60.18,152.29-133.87,163.34
				c-73.69,11.05-67.55-95.8-20.88-153.52c-131.41,27.02-163.34,121.59-126.5,214.93c28.1,71.18,66.91,100.92,134.94,100.7
				c-8.78,14.62-16.47,37.63-11.13,70.63c33.48,4.37,74.73-11.33,102.78-24.84c24.66,47.59,60.28,61.15,95.18,110.19
				c-22.11,50.35-20.88,97.02,28.25,106.85c22.11,45.44,87.34,52.81,87.34,52.81s65.23-7.37,87.34-52.81
				c49.13-9.83,50.35-56.5,28.25-106.85c34.9-49.04,70.52-62.6,95.18-110.19c28.05,13.51,69.3,29.2,102.78,24.84
				c5.34-33.01-2.35-56.01-11.13-70.63c68.03,0.23,106.85-29.52,134.94-100.7C-80.75,461.52-112.69,366.95-244.1,339.93z"/>
			<g>
				<path class="st4" d="M-716.6,500.82c15.97-23.95,53.42-27.02,94.57,9.21c57.11-27.63,36.84-108.08,36.84-108.08
					s-16.58-30.09-50.97-34.39c22.72-13.51,50.97,3.07,50.97,3.07c-79.83-74.3-129.57,7.98-168.87,69.39
					c-46.67,77.99-96.41,101.94-128.96,77.37c-66.32-52.2-31.93-140.62-31.93-140.62s-53.42,29.48-55.27,102.55
					c-1.84,73.08,32.55,131.41,95.8,136.94c-12.28-9.21-27.63-22.11-27.63-22.11s55.88,25.18,143.69-20.88
					C-758.97,533.37-741.77,491-716.6,500.82z"/>
				<path class="st4" d="M-235.5,616.27c12.27-9.21,27.62-22.11,27.62-22.11s-55.87,25.19-143.69-20.87
					c0.61-39.92-16.59-82.29-41.76-72.47c-15.96-23.95-53.42-27.01-94.57,9.21c-57.11-27.64-36.85-108.08-36.85-108.08
					s16.59-30.08,50.97-34.38c-22.22-13.21-49.72,2.35-50.92,3.04c27.27-25.39,51.05-32.47,72.08-28.36
					c40.5,7.91,70.89,57.36,96.75,97.77c46.67,77.99,96.42,101.94,128.95,77.38c65.28-51.36,33-137.82,31.97-140.56
					c0-0.02-0.02-0.03-0.02-0.05c0.82,0.46,53.43,30.02,55.26,102.54C-137.87,552.4-172.25,610.75-235.5,616.27z"/>
				<path class="st2" d="M-427.7,739.7c26.4-53.42,22.1-63.86,21.48-65.71c-0.61-1.84-35.61,49.75-54.64,54.66
					c0-57.11-12.29-63.26-12.29-63.26s32.55-8.11,46.67-26.77c-31.32,8.35-37.46,7.12-37.46,7.12s50.97-14.12,46.67-74.31
					c19.65-2.45,19.65-2.45,19.65-2.45s-12.9-31.32-45.43-12.29c-32.55,19.04-47.3,36.24-57.73,36.85
					c-10.44,0.61-17.18-23.34-17.18-23.34s0,0-0.02,0.02c0,0.02-0.02,0.05-0.02,0.08c-0.75,1.93-12.62,33.9,14.77,60.09
					c15.18,51,25.55,108,25.77,109.29c-0.35-0.36-6.1-6.18-15.77-12.93c-13.95-9.75-36.02-21.44-61.72-21.44
					c-44.08,0-77.51,34.38-77.51,34.38s10.44-57.72,25.78-109.3c28.25-27.02,14.75-60.18,14.75-60.18s-6.76,23.95-17.2,23.34
					c-10.44-0.61-25.17-17.81-57.72-36.85c-32.55-19.04-45.45,12.29-45.45,12.29s0,0,19.65,2.45c-4.3,60.18,46.67,74.31,46.67,74.31
					s-6.14,1.22-37.46-7.12c14.12,18.66,46.67,26.77,46.67,26.77s-12.29,6.15-12.29,63.26c-19.04-4.91-54.03-56.5-54.64-54.66
					c-0.61,1.85-4.91,12.29,21.48,65.71c-74.92-37.46-66.93-133.86-66.93-133.86s1.66,2.31,5.74,5.59
					c4.86,3.92,13.17,9.24,26.19,13.75c-9.82-19.33-23.34-58.65-9.82-85.04c13.51-26.41,54.03-7.99,54.03-7.99
					s-2.45-6.14-15.35-20.87c15.35,0,44.84,19.04,61.41,30.7c16.59,11.68,39.37,10.44,39.37,10.44s-8.66-4.3-32.61-17.18
					c9.2-14.12,44.82-19.04,44.82-19.04s-4.3-2.46-14.12-3.69c8.6-9.21,34.52-8.6,34.52-8.6s25.92-0.61,34.52,8.6
					c-9.82,1.22-14.12,3.69-14.12,3.69s35.62,4.91,44.84,19.04c-23.95,12.88-32.63,17.18-32.63,17.18s22.8,1.24,39.37-10.44
					c16.59-11.66,46.06-30.7,61.41-30.7c-12.9,14.74-15.35,20.87-15.35,20.87s21.39-9.73,38.28-4.91c6.36,1.8,12.07,5.68,15.76,12.9
					c13.51,26.4,0,65.71-9.82,85.04c23.95-8.29,31.94-19.33,31.94-19.33S-352.79,702.24-427.7,739.7z"/>
				<path class="st2" d="M-510.64,913.33l13.54,13.67c-8.14,9.13-17.06,14.92-25.42,18.58c-17.47,7.67-32.44,5.98-32.44,5.98
					s-32.69,3.69-57.86-24.56l24.32-24.56c0,0-15.72-0.61-33.54,10.44c22.72-37.46,67.07-42.98,67.07-42.98s20.97,2.61,41.45,16.41
					c0,0,0.02,0.02,0.05,0.03c9.29,6.28,18.49,14.85,25.58,26.54c-4.9-3.04-9.64-5.19-13.94-6.72c-11.33-4.05-19.6-3.72-19.6-3.72
					l10.78,10.88C-510.64,913.33-510.64,913.33-510.64,913.33z"/>
				<path class="st2" d="M-457.74,846c1.29-32.55,13.45-35-4.97-73.69c-11.11-23.34-42.4-37.07-65.46-44.27c0,0,0,0-0.02-0.02
					c-15.16-4.74-26.77-6.67-26.77-6.67s-51.16,8.51-78.92,33.66c-5.59,5.07-10.23,10.81-13.32,17.29
					c-18.42,38.7-6.26,41.15-4.97,73.69c1.29,32.55-6.09,45.45,5.59,44.84c2.28-0.13,5.74-1.66,9.98-4.1
					c17.48-10.01,48.16-34.96,63.09-36.44c18.56-1.84,18.56-1.84,18.56-1.84s0,0,18.56,1.84c15.07,1.49,46.17,26.88,63.57,36.71
					c4.02,2.28,7.3,3.7,9.49,3.83C-451.65,891.45-459.03,878.55-457.74,846z M-583.35,817.96c-5.32,9.42-13.51,9.42-22.79-1.22
					c-2.73,3.28-4.22,16.37-4.22,16.37s0,0-6.56-15.14c-6.14-21.7,10.78-33.57,10.78-33.57
					C-569.55,771.7-578.03,808.54-583.35,817.96z M-493,817.96c-6.56,15.14-6.56,15.14-6.56,15.14s-1.49-13.09-4.22-16.37
					c-9.27,10.64-17.47,10.64-22.79,1.22c-5.32-9.42-13.79-46.26,22.79-33.57C-503.78,784.39-486.87,796.26-493,817.96z"/>
			</g>
		</g>
		<path class="st1" d="M-560.79,501.06c0,0,25.18,22.11,25.79,44.83c-25.79-1.84-25.79-1.84-25.79-1.84s28.25,43.32,25.79,75.7
			c-29.48-5.08-29.48-5.08-29.48-5.08s36.88,73.7,36.25,84.13c-16.6,11.05-36.25,9.83-36.25,9.83s39.15,37.46,33.09,62.02
			c36.92,3.68,63.43,36.25,39.72,62.46c15.62-9.65,15.62-9.65,15.62-9.65l-22.72,31.93c-42.37-14.12-68.24-5.73-68.24-5.73
			s16.04,49.33,12.66,64.07c10.14-11.67,12.59-17.19,12.59-17.19s1.52,55.88-13.21,63.86c44.53-14.74,65.87-21.31,70.32-49.6
			c36.84-9.97,48.95-44.97,47.5-47.43c-1.45-2.46-16.8-86.58-10.05-97.64s95.18-70,95.18-70l27.63-52.81l132.64-4.3
			c0,0,67.56-82.53,68.78-152.91s-85.36-122.2-85.36-122.2s25.18,70.74,0,115.2c-25.18,44.46-73.69,25.17-73.69,25.17
			s-65.76-91.44-106.85-140.37s-125.89-26.41-125.89-26.41l-40.23,79.22L-560.79,501.06z"/>
		<g>
			<g>
				<path class="st3" d="M-671.16,573.9c-12.28,63.86,49.13,42.37,49.13,42.37L-671.16,573.9z"/>
				<path class="st3" d="M-438.76,573.9l-49.13,42.37C-487.89,616.27-426.48,637.76-438.76,573.9z"/>
			</g>
		</g>
		<g>
			<g>
				<path class="st3" d="M-427.7,739.7c53.25-36.88,57.28-117.9,57.28-117.9s-13.92,21.33-35.2,24.37c35.2-56.73,0-117.67,0-117.67
					l6.98-1.27c6.36,1.8,12.07,5.68,15.76,12.9c13.51,26.4,0,65.71-9.82,85.04c23.95-8.29,31.94-19.33,31.94-19.33
					S-352.79,702.24-427.7,739.7z"/>
				<g>
					<path class="st3" d="M-487.89,912.87c-4.9-3.04-9.64-5.19-13.94-6.72c-3.36-9.65-11.69-19.85-11.69-19.85s0.02,0.02,0.05,0.03
						C-504.18,892.61-494.98,901.18-487.89,912.87z"/>
					<path class="st3" d="M-510.64,913.33l13.54,13.67c-8.14,9.13-17.06,14.92-25.42,18.58
						C-513.61,935.19-511.25,920.8-510.64,913.33z"/>
					<path class="st3" d="M-517.97,638.62c-25.3-42.53-0.53-67.87-0.02-68.39c0.02-0.02,0.02-0.02,0.02-0.02
						c-0.02,0.03-0.02,0.06-0.03,0.09c-0.75,1.93-12.62,33.9,14.77,60.09c15.35,51.58,25.78,109.3,25.78,109.3
						s-5.81-5.98-15.79-12.95C-496.5,707.86-504.82,665.61-517.97,638.62z"/>
					<path class="st3" d="M-463.33,890.84c-2.2-0.13-5.48-1.55-9.49-3.83c0.03-0.24,0.05-0.47,0.05-0.71
						c14.74-3.28,14.74-31.12,4.91-78.87c-9.65-46.89-58.57-78.29-60.31-79.39c23.05,7.2,54.35,20.93,65.46,44.27
						c18.42,38.7,6.26,41.15,4.97,73.69C-459.03,878.55-451.65,891.45-463.33,890.84z"/>
				</g>
			</g>
		</g>
		<path class="st3" d="M-196.03,523.59c-20.46,31.1-67.95,32.75-67.95,32.75s0,0,12.27-13.1c-58.94-0.82-103.17-55.68-126.08-106.45
			c-22.93-50.77-74.82-94.54-74.82-94.54c40.5,7.91,70.89,57.36,96.75,97.77c46.67,77.99,96.42,101.94,128.95,77.38
			c65.28-51.36,33-137.82,31.97-140.56C-172.63,419.2-175.58,492.48-196.03,523.59z"/>
		<path class="st5" d="M-851.82,526.48c0,0,60.55,10.2,93.3-27.47c32.75-37.66,101.22-42.58,101.22-42.58s-59.46,23.81-62.73,35.65
			c-44.21,21.66-57.31,60.15-50.76,110.91c22.93-45.85,27.02-46.66,27.02-46.66s13.1-70.42,61.41-58.96s67.96,22.11,67.96,22.11
			s68.78-22.93,63.05-73.69s-30.32-95.8-30.32-95.8s-34.84-43.39-65.71-31.11s-74.27,29.48-94.74,80.24S-830.8,529.7-851.82,526.48z
			"/>
		<path class="st5" d="M-652.44,525.46c0,0,5.71,44.23,34.18,48.44c28.47,4.21,34.13-17.56,34.13-17.56s9.33,52.8,5.59,68.16
			c-20.94,18.42-25.24,63.86-25.24,63.86l17.19-11.05c0,0-18.65,31.31-15.35,44.05c-11.88,19.85-11.88,19.85-11.88,19.85
			s30.92-0.53,41.97,40.56c11.05,41.08-33.69,84.5-33.69,84.5s15.88,12.17,21.41,24.6c5.53,12.43,5.59,33.92,5.59,33.92l-8.04-3.07
			c0,0-9.21,25.01-14.74,23.87c35.62,8.68,57.88,11,57.88,11l14.1-52.06l1.11-26.42l31.13-11.66l22.9-27.02c0,0,0-22.11-7.37-42.37
			c-7.37-20.26-66.32-73.69-66.32-73.69l34.38-17.81l-9.01-41.14c0,0-15.08-74.79-8.86-90.51s25.25-46.67,25.25-46.67l-48.83-43.36
			l-70.92,35L-652.44,525.46z"/>
		<g>
			<path class="st0" d="M-682.21,739.7c-74.92-37.46-66.93-133.86-66.93-133.86s1.66,2.31,5.74,5.59
				C-743.15,631.09-738.44,706.68-682.21,739.7z"/>
			<path class="st0" d="M-636.61,886.74c-4.24,2.43-7.71,3.97-9.98,4.1c-11.68,0.61-4.3-12.29-5.59-44.84
				c-1.29-32.55-13.45-35,4.97-73.69c3.09-6.48,7.74-12.22,13.32-17.29c-4.94,9.76-14,29.5-13.53,42.04
				c0.64,17.18,8.02,51.99,6.39,70.01C-642.67,885.06-636.61,886.74-636.61,886.74z"/>
		</g>
	</g>
</g>
<g>
	<path class="st0" d="M497.13,925.05c-3.03-0.34-70.1-8.47-101.79-56.54c-23.73-7.89-35.96-22.81-42.17-34.74
		c-12.21-23.47-11.65-54.62,1.51-90.74c-11.66-14.46-23.51-25.6-35.04-36.43c-14.17-13.32-28.7-26.97-41.68-45.65
		c-30.28,12.44-57.48,18.73-81.09,18.73c-5.28,0-10.44-0.32-15.35-0.96l-18.91-2.47l-3.05-18.82c-3.3-20.37-2.38-37.79,0.62-52.28
		c-24.19-4.11-44.89-12.81-62.71-26.27c-25.29-19.1-44.65-47.18-60.9-88.36c-22.37-56.67-21.37-112.49,2.8-157.17
		c17.76-32.82,56.99-75.66,143.01-93.35l34.78-7.15c13.5-21.93,29.66-42.42,48.33-61.09C328.13,109.12,411.41,74.62,500,74.62
		s171.87,34.5,234.52,97.14c18.66,18.67,34.83,39.16,48.33,61.09l34.78,7.15c86.02,17.69,125.25,60.52,143.01,93.35
		c24.18,44.68,25.17,100.49,2.8,157.17c-16.26,41.19-35.61,69.27-60.9,88.37c-17.82,13.46-38.53,22.15-62.72,26.27
		c3,14.49,3.92,31.9,0.62,52.27l-3.05,18.82l-18.91,2.47c-4.9,0.64-10.07,0.96-15.35,0.96c-23.61,0-50.81-6.29-81.09-18.73
		c-12.98,18.68-27.51,32.33-41.68,45.65c-11.53,10.84-23.38,21.97-35.04,36.43c13.16,36.11,13.72,67.27,1.51,90.74
		c-6.21,11.93-18.44,26.85-42.17,34.74c-31.69,48.07-98.75,56.2-101.79,56.54l-2.87,0.32L497.13,925.05z"/>
	<g>
		<circle class="st1" cx="500" cy="406.28" r="306.06"/>
		<circle class="st2" cx="500" cy="406.28" r="284.91"/>
		<path class="st3" d="M500,166.1c141.72,0,257.32,111.77,263.49,251.97c0.17-3.91,0.28-7.84,0.28-11.8
			c0-145.67-118.09-263.77-263.77-263.77S236.23,260.61,236.23,406.28c0,3.95,0.1,7.88,0.28,11.8
			C242.68,277.88,358.28,166.1,500,166.1z"/>
		<g>
			<g>
				<path class="st1" d="M812.47,265.07c46.91,58.02,53.08,165.43-20.99,154.32c-74.07-11.11-71.6-125.92-134.56-164.19
					S535.66,220.63,500,291c-35.66-70.37-93.96-74.07-156.92-35.8s-60.49,153.08-134.56,164.19
					c-74.07,11.11-67.9-96.29-20.99-154.32C55.43,292.23,23.34,387.29,60.37,481.11c28.24,71.54,67.26,101.45,135.64,101.22
					c-8.83,14.69-16.56,37.82-11.19,71c33.66,4.39,75.12-11.39,103.32-24.97c24.79,47.84,60.6,61.47,95.67,110.76
					c-22.22,50.62-20.99,97.53,28.39,107.4c22.22,45.68,87.79,53.08,87.79,53.08s65.57-7.41,87.79-53.08
					c49.38-9.88,50.62-56.79,28.39-107.4c35.08-49.3,70.88-62.93,95.67-110.76c28.19,13.58,69.66,29.36,103.32,24.97
					c5.37-33.18-2.36-56.3-11.19-71c68.39,0.23,107.4-29.67,135.64-101.22C976.66,387.29,944.57,292.23,812.47,265.07z"/>
				<g>
					<path class="st4" d="M337.52,426.79c16.05-24.07,53.7-27.16,95.06,9.26c57.41-27.78,37.04-108.64,37.04-108.64
						s-16.67-30.25-51.23-34.57c22.84-13.58,51.23,3.09,51.23,3.09c-80.24-74.69-130.24,8.02-169.75,69.75
						c-46.91,78.39-96.91,102.47-129.62,77.78c-66.66-52.47-32.1-141.35-32.1-141.35s-53.7,29.63-55.55,103.08
						c-1.85,73.45,32.71,132.09,96.29,137.65c-12.35-9.26-27.78-22.22-27.78-22.22s56.17,25.31,144.44-20.99
						C294.93,459.51,312.22,416.92,337.52,426.79z"/>
					<path class="st4" d="M821.12,542.84c12.34-9.26,27.76-22.23,27.76-22.23s-56.16,25.32-144.43-20.98
						c0.62-40.13-16.67-82.72-41.98-72.85c-16.04-24.07-53.7-27.15-95.06,9.26c-57.4-27.78-37.04-108.64-37.04-108.64
						s16.67-30.24,51.24-34.56c-22.34-13.28-49.97,2.37-51.19,3.06c27.42-25.52,51.31-32.64,72.45-28.5
						c40.71,7.95,71.25,57.66,97.25,98.28c46.91,78.4,96.92,102.47,129.62,77.78c65.62-51.63,33.17-138.53,32.13-141.29
						c0-0.02-0.02-0.03-0.02-0.05c0.82,0.46,53.71,30.18,55.54,103.07C919.25,478.64,884.69,537.29,821.12,542.84z"/>
					<path class="st2" d="M627.91,666.91c26.53-53.7,22.21-64.19,21.6-66.05c-0.62-1.85-35.79,50.01-54.93,54.94
						c0-57.4-12.35-63.59-12.35-63.59s32.72-8.16,46.91-26.91c-31.49,8.39-37.65,7.16-37.65,7.16s51.24-14.2,46.91-74.69
						c19.75-2.46,19.75-2.46,19.75-2.46s-12.97-31.49-45.67-12.35c-32.72,19.13-47.54,36.42-58.03,37.04
						c-10.49,0.62-17.27-23.46-17.27-23.46s0,0-0.02,0.02c0,0.02-0.02,0.05-0.02,0.08c-0.76,1.94-12.68,34.07,14.84,60.4
						c15.25,51.27,25.68,108.56,25.9,109.85c-0.35-0.36-6.14-6.22-15.85-13c-14.02-9.8-36.2-21.55-62.04-21.55
						c-44.31,0-77.91,34.56-77.91,34.56s10.49-58.02,25.92-109.87c28.39-27.16,14.83-60.5,14.83-60.5s-6.8,24.07-17.29,23.46
						c-10.49-0.62-25.3-17.9-58.02-37.04c-32.72-19.13-45.68,12.35-45.68,12.35s0,0,19.75,2.46c-4.32,60.5,46.91,74.69,46.91,74.69
						s-6.17,1.23-37.65-7.16c14.2,18.76,46.91,26.91,46.91,26.91s-12.35,6.18-12.35,63.59c-19.13-4.94-54.31-56.79-54.93-54.94
						c-0.62,1.86-4.94,12.35,21.6,66.05c-75.31-37.65-67.28-134.56-67.28-134.56s1.67,2.32,5.77,5.62
						c4.89,3.94,13.23,9.29,26.33,13.82c-9.87-19.43-23.46-58.95-9.87-85.48c13.58-26.55,54.31-8.03,54.31-8.03
						s-2.46-6.17-15.43-20.98c15.43,0,45.07,19.13,61.73,30.85c16.67,11.74,39.58,10.49,39.58,10.49s-8.71-4.32-32.78-17.27
						c9.24-14.2,45.05-19.13,45.05-19.13s-4.32-2.48-14.2-3.71c8.64-9.26,34.7-8.64,34.7-8.64s26.06-0.62,34.7,8.64
						c-9.87,1.23-14.2,3.71-14.2,3.71s35.81,4.94,45.07,19.13c-24.07,12.95-32.8,17.27-32.8,17.27s22.92,1.25,39.58-10.49
						c16.67-11.72,46.3-30.85,61.73-30.85c-12.97,14.81-15.43,20.98-15.43,20.98s21.5-9.78,38.47-4.94
						c6.39,1.81,12.13,5.71,15.84,12.97c13.58,26.53,0,66.05-9.87,85.48c24.07-8.33,32.1-19.43,32.1-19.43
						S703.22,629.25,627.91,666.91z"/>
					<path class="st2" d="M544.55,841.44l13.61,13.74c-8.19,9.18-17.15,15-25.55,18.68c-17.56,7.71-32.61,6.01-32.61,6.01
						s-32.86,3.71-58.16-24.69l24.45-24.69c0,0-15.81-0.62-33.71,10.49c22.84-37.65,67.42-43.21,67.42-43.21s21.07,2.62,41.66,16.5
						c0,0,0.02,0.02,0.05,0.03c9.34,6.31,18.58,14.92,25.71,26.67c-4.92-3.06-9.69-5.22-14.01-6.75c-11.39-4.07-19.7-3.74-19.7-3.74
						l10.84,10.93C544.55,841.44,544.55,841.44,544.55,841.44z"/>
					<path class="st2" d="M597.72,773.76c1.29-32.72,13.52-35.18-5-74.08c-11.17-23.46-42.62-37.26-65.8-44.5c0,0,0,0-0.02-0.02
						c-15.24-4.76-26.91-6.7-26.91-6.7s-51.42,8.55-79.33,33.84c-5.62,5.1-10.28,10.87-13.39,17.38c-18.52,38.9-6.29,41.36-5,74.08
						c1.29,32.72-6.12,45.68,5.62,45.07c2.29-0.13,5.77-1.67,10.03-4.12c17.57-10.06,48.41-35.15,63.41-36.63
						c18.66-1.85,18.66-1.85,18.66-1.85s0,0,18.66,1.85c15.14,1.5,46.41,27.02,63.9,36.9c4.04,2.29,7.34,3.72,9.54,3.85
						C603.84,819.45,596.43,806.48,597.72,773.76z M471.46,745.57c-5.35,9.46-13.58,9.46-22.9-1.23c-2.74,3.3-4.24,16.45-4.24,16.45
						s0,0-6.59-15.22c-6.17-21.82,10.84-33.74,10.84-33.74C485.33,699.07,476.81,736.11,471.46,745.57z M562.28,745.57
						c-6.59,15.22-6.59,15.22-6.59,15.22s-1.5-13.16-4.24-16.45c-9.32,10.7-17.56,10.7-22.9,1.23c-5.35-9.46-13.87-46.5,22.9-33.74
						C551.44,711.83,568.44,723.76,562.28,745.57z"/>
				</g>
			</g>
			<path class="st1" d="M494.14,427.04c0,0,25.31,22.22,25.93,45.06c-25.93-1.85-25.93-1.85-25.93-1.85s28.39,43.54,25.93,76.09
				c-29.63-5.11-29.63-5.11-29.63-5.11s37.07,74.08,36.44,84.56c-16.68,11.11-36.44,9.88-36.44,9.88s39.35,37.65,33.26,62.34
				c37.11,3.7,63.76,36.44,39.93,62.79c15.7-9.7,15.7-9.7,15.7-9.7l-22.84,32.1c-42.59-14.2-68.6-5.76-68.6-5.76
				s16.12,49.59,12.73,64.4c10.19-11.73,12.66-17.28,12.66-17.28s1.53,56.17-13.28,64.2c44.76-14.81,66.21-21.42,70.68-49.85
				c37.04-10.02,49.21-45.21,47.75-47.67c-1.46-2.47-16.89-87.03-10.1-98.14c6.79-11.11,95.68-70.37,95.68-70.37l27.78-53.08
				l133.33-4.32c0,0,67.91-82.96,69.13-153.7s-85.8-122.84-85.8-122.84s25.31,71.11,0,115.8s-74.07,25.3-74.07,25.3
				s-66.1-91.92-107.4-141.1c-41.3-49.18-126.54-26.54-126.54-26.54L500,341.86L494.14,427.04z"/>
			<g>
				<g>
					<path class="st3" d="M383.2,500.25c-12.35,64.2,49.38,42.59,49.38,42.59L383.2,500.25z"/>
					<path class="st3" d="M616.8,500.25l-49.38,42.59C567.42,542.84,629.14,564.44,616.8,500.25z"/>
				</g>
			</g>
			<g>
				<g>
					<path class="st3" d="M627.91,666.91c53.52-37.07,57.58-118.51,57.58-118.51s-13.99,21.44-35.38,24.5
						c35.38-57.02,0-118.28,0-118.28l7.02-1.28c6.39,1.81,12.13,5.71,15.84,12.97c13.58,26.53,0,66.05-9.87,85.48
						c24.07-8.33,32.1-19.43,32.1-19.43S703.22,629.25,627.91,666.91z"/>
					<g>
						<path class="st3" d="M567.42,840.98c-4.92-3.06-9.69-5.22-14.01-6.75c-3.38-9.7-11.75-19.95-11.75-19.95s0.02,0.02,0.05,0.03
							C551.05,820.61,560.29,829.23,567.42,840.98z"/>
						<path class="st3" d="M544.55,841.44l13.61,13.74c-8.19,9.18-17.15,15-25.55,18.68C541.56,863.41,543.93,848.95,544.55,841.44z
							"/>
						<path class="st3" d="M537.18,565.3c-25.43-42.75-0.54-68.22-0.02-68.75c0.02-0.02,0.02-0.02,0.02-0.02
							c-0.02,0.03-0.02,0.06-0.03,0.09c-0.76,1.94-12.68,34.07,14.84,60.4c15.43,51.85,25.92,109.87,25.92,109.87
							s-5.84-6.01-15.87-13.01C558.76,634.9,550.4,592.44,537.18,565.3z"/>
						<path class="st3" d="M592.11,818.83c-2.21-0.13-5.51-1.56-9.54-3.85c0.03-0.24,0.05-0.47,0.05-0.71
							c14.81-3.3,14.81-31.28,4.94-79.28c-9.7-47.13-58.87-78.7-60.62-79.8c23.17,7.24,54.63,21.04,65.8,44.5
							c18.52,38.9,6.29,41.36,5,74.08C596.43,806.48,603.84,819.45,592.11,818.83z"/>
					</g>
				</g>
			</g>
			<path class="st3" d="M860.79,449.68c-20.57,31.26-68.3,32.92-68.3,32.92s0,0,12.34-13.17c-59.25-0.82-103.7-55.97-126.73-107
				c-23.05-51.03-75.21-95.03-75.21-95.03c40.71,7.95,71.25,57.66,97.25,98.28c46.91,78.4,96.92,102.47,129.62,77.78
				c65.62-51.63,33.17-138.53,32.13-141.29C884.31,344.75,881.35,418.41,860.79,449.68z"/>
			<path class="st5" d="M201.6,452.59c0,0,60.86,10.25,93.78-27.61s101.74-42.8,101.74-42.8s-59.77,23.93-63.06,35.83
				c-44.44,21.78-57.61,60.46-51.03,111.49c23.04-46.09,27.16-46.9,27.16-46.9s13.17-70.79,61.73-59.26s68.31,22.22,68.31,22.22
				s69.13-23.04,63.37-74.07s-30.48-96.29-30.48-96.29s-35.02-43.62-66.05-31.27s-74.66,29.63-95.23,80.66
				C291.27,375.6,222.73,455.82,201.6,452.59z"/>
			<path class="st5" d="M402.01,451.56c0,0,5.74,44.46,34.36,48.69c28.62,4.23,34.31-17.65,34.31-17.65s9.38,53.08,5.62,68.51
				c-21.05,18.52-25.37,64.2-25.37,64.2l17.28-11.11c0,0-18.74,31.47-15.43,44.28c-11.95,19.95-11.95,19.95-11.95,19.95
				s31.08-0.53,42.19,40.77c11.11,41.3-33.86,84.94-33.86,84.94s15.96,12.24,21.52,24.73c5.56,12.49,5.62,34.1,5.62,34.1l-8.09-3.09
				c0,0-9.26,25.14-14.81,23.99c35.8,8.72,58.18,11.05,58.18,11.05l14.17-52.33l1.12-26.55l31.29-11.72l23.02-27.16
				c0,0,0-22.22-7.41-42.59s-66.66-74.07-66.66-74.07l34.56-17.9l-9.05-41.36c0,0-15.15-75.17-8.91-90.98
				c6.25-15.81,25.38-46.91,25.38-46.91L500,409.75l-71.29,35.18L402.01,451.56z"/>
			<g>
				<path class="st0" d="M372.08,666.91c-75.31-37.65-67.28-134.56-67.28-134.56s1.67,2.32,5.77,5.62
					C310.83,557.73,315.56,633.72,372.08,666.91z"/>
				<path class="st0" d="M417.92,814.71c-4.26,2.45-7.75,3.99-10.03,4.12c-11.74,0.62-4.32-12.35-5.62-45.07
					c-1.29-32.72-13.52-35.18,5-74.08c3.11-6.51,7.78-12.29,13.39-17.38c-4.97,9.81-14.07,29.66-13.6,42.26
					c0.65,17.27,8.06,52.26,6.42,70.37C411.84,813.03,417.92,814.71,417.92,814.71z"/>
			</g>
		</g>
	</g>
</g>
</svg>
