<?xml version="1.0" encoding="utf-8"?>
<!-- Generator: Adobe Illustrator 24.3.0, SVG Export Plug-In . SVG Version: 6.00 Build 0)  -->
<svg version="1.1" id="Layer_1" xmlns="http://www.w3.org/2000/svg" xmlns:xlink="http://www.w3.org/1999/xlink" x="0px" y="0px"
	 viewBox="0 0 1000 1000" style="enable-background:new 0 0 1000 1000;" xml:space="preserve">
<style type="text/css">
	.st0{fill:#6D6E71;}
	.st1{fill:#032833;}
	.st2{fill:#414042;}
	.st3{fill:#F7941D;}
	.st4{fill:#FEFEFE;}
	.st5{opacity:0.54;fill:#032833;}
</style>
<g>
	<path class="st0" d="M497.13,925.05c-3.03-0.34-70.1-8.47-101.79-56.54c-23.73-7.89-35.96-22.81-42.17-34.74
		c-12.21-23.47-11.65-54.62,1.51-90.74c-11.66-14.46-23.51-25.6-35.04-36.43c-14.17-13.32-28.7-26.97-41.68-45.65
		c-30.28,12.44-57.48,18.73-81.09,18.73c-5.28,0-10.44-0.32-15.35-0.96l-18.91-2.47l-3.05-18.82c-3.3-20.37-2.38-37.79,0.62-52.28
		c-24.19-4.11-44.89-12.81-62.71-26.27c-25.29-19.1-44.65-47.18-60.9-88.36c-22.37-56.67-21.37-112.49,2.8-157.17
		c17.76-32.82,56.99-75.66,143.01-93.35l34.78-7.15c13.5-21.93,29.66-42.42,48.33-61.09C328.13,109.12,411.41,74.62,500,74.62
		s171.87,34.5,234.52,97.14c18.66,18.67,34.83,39.16,48.33,61.09l34.78,7.15c86.02,17.69,125.25,60.52,143.01,93.35
		c24.18,44.68,25.17,100.49,2.8,157.17c-16.26,41.19-35.61,69.27-60.9,88.37c-17.82,13.46-38.53,22.15-62.72,26.27
		c3,14.49,3.92,31.9,0.62,52.27l-3.05,18.82l-18.91,2.47c-4.9,0.64-10.07,0.96-15.35,0.96c-23.61,0-50.81-6.29-81.09-18.73
		c-12.98,18.68-27.51,32.33-41.68,45.65c-11.53,10.84-23.38,21.97-35.04,36.43c13.16,36.11,13.72,67.27,1.51,90.74
		c-6.21,11.93-18.44,26.85-42.17,34.74c-31.69,48.07-98.75,56.2-101.79,56.54l-2.87,0.32L497.13,925.05z"/>
	<g>
		<circle class="st1" cx="500" cy="406.28" r="306.06"/>
		<circle class="st2" cx="500" cy="406.28" r="284.91"/>
		<path class="st3" d="M500,166.1c141.72,0,257.32,111.77,263.49,251.97c0.17-3.91,0.28-7.84,0.28-11.8
			c0-145.67-118.09-263.77-263.77-263.77S236.23,260.61,236.23,406.28c0,3.95,0.1,7.88,0.28,11.8
			C242.68,277.88,358.28,166.1,500,166.1z"/>
		<g>
			<g>
				<path class="st1" d="M812.47,265.07c46.91,58.02,53.08,165.43-20.99,154.32c-74.07-11.11-71.6-125.92-134.56-164.19
					S535.66,220.63,500,291c-35.66-70.37-93.96-74.07-156.92-35.8s-60.49,153.08-134.56,164.19
					c-74.07,11.11-67.9-96.29-20.99-154.32C55.43,292.23,23.34,387.29,60.37,481.11c28.24,71.54,67.26,101.45,135.64,101.22
					c-8.83,14.69-16.56,37.82-11.19,71c33.66,4.39,75.12-11.39,103.32-24.97c24.79,47.84,60.6,61.47,95.67,110.76
					c-22.22,50.62-20.99,97.53,28.39,107.4c22.22,45.68,87.79,53.08,87.79,53.08s65.57-7.41,87.79-53.08
					c49.38-9.88,50.62-56.79,28.39-107.4c35.08-49.3,70.88-62.93,95.67-110.76c28.19,13.58,69.66,29.36,103.32,24.97
					c5.37-33.18-2.36-56.3-11.19-71c68.39,0.23,107.4-29.67,135.64-101.22C976.66,387.29,944.57,292.23,812.47,265.07z"/>
				<g>
					<path class="st4" d="M337.52,426.79c16.05-24.07,53.7-27.16,95.06,9.26c57.41-27.78,37.04-108.64,37.04-108.64
						s-16.67-30.25-51.23-34.57c22.84-13.58,51.23,3.09,51.23,3.09c-80.24-74.69-130.24,8.02-169.75,69.75
						c-46.91,78.39-96.91,102.47-129.62,77.78c-66.66-52.47-32.1-141.35-32.1-141.35s-53.7,29.63-55.55,103.08
						c-1.85,73.45,32.71,132.09,96.29,137.65c-12.35-9.26-27.78-22.22-27.78-22.22s56.17,25.31,144.44-20.99
						C294.93,459.51,312.22,416.92,337.52,426.79z"/>
					<path class="st4" d="M821.12,542.84c12.34-9.26,27.76-22.23,27.76-22.23s-56.16,25.32-144.43-20.98
						c0.62-40.13-16.67-82.72-41.98-72.85c-16.04-24.07-53.7-27.15-95.06,9.26c-57.4-27.78-37.04-108.64-37.04-108.64
						s16.67-30.24,51.24-34.56c-22.34-13.28-49.97,2.37-51.19,3.06c27.42-25.52,51.31-32.64,72.45-28.5
						c40.71,7.95,71.25,57.66,97.25,98.28c46.91,78.4,96.92,102.47,129.62,77.78c65.62-51.63,33.17-138.53,32.13-141.29
						c0-0.02-0.02-0.03-0.02-0.05c0.82,0.46,53.71,30.18,55.54,103.07C919.25,478.64,884.69,537.29,821.12,542.84z"/>
					<path class="st2" d="M627.91,666.91c26.53-53.7,22.21-64.19,21.6-66.05c-0.62-1.85-35.79,50.01-54.93,54.94
						c0-57.4-12.35-63.59-12.35-63.59s32.72-8.16,46.91-26.91c-31.49,8.39-37.65,7.16-37.65,7.16s51.24-14.2,46.91-74.69
						c19.75-2.46,19.75-2.46,19.75-2.46s-12.97-31.49-45.67-12.35c-32.72,19.13-47.54,36.42-58.03,37.04
						c-10.49,0.62-17.27-23.46-17.27-23.46s0,0-0.02,0.02c0,0.02-0.02,0.05-0.02,0.08c-0.76,1.94-12.68,34.07,14.84,60.4
						c15.25,51.27,25.68,108.56,25.9,109.85c-0.35-0.36-6.14-6.22-15.85-13c-14.02-9.8-36.2-21.55-62.04-21.55
						c-44.31,0-77.91,34.56-77.91,34.56s10.49-58.02,25.92-109.87c28.39-27.16,14.83-60.5,14.83-60.5s-6.8,24.07-17.29,23.46
						c-10.49-0.62-25.3-17.9-58.02-37.04c-32.72-19.13-45.68,12.35-45.68,12.35s0,0,19.75,2.46c-4.32,60.5,46.91,74.69,46.91,74.69
						s-6.17,1.23-37.65-7.16c14.2,18.76,46.91,26.91,46.91,26.91s-12.35,6.18-12.35,63.59c-19.13-4.94-54.31-56.79-54.93-54.94
						c-0.62,1.86-4.94,12.35,21.6,66.05c-75.31-37.65-67.28-134.56-67.28-134.56s1.67,2.32,5.77,5.62
						c4.89,3.94,13.23,9.29,26.33,13.82c-9.87-19.43-23.46-58.95-9.87-85.48c13.58-26.55,54.31-8.03,54.31-8.03
						s-2.46-6.17-15.43-20.98c15.43,0,45.07,19.13,61.73,30.85c16.67,11.74,39.58,10.49,39.58,10.49s-8.71-4.32-32.78-17.27
						c9.24-14.2,45.05-19.13,45.05-19.13s-4.32-2.48-14.2-3.71c8.64-9.26,34.7-8.64,34.7-8.64s26.06-0.62,34.7,8.64
						c-9.87,1.23-14.2,3.71-14.2,3.71s35.81,4.94,45.07,19.13c-24.07,12.95-32.8,17.27-32.8,17.27s22.92,1.25,39.58-10.49
						c16.67-11.72,46.3-30.85,61.73-30.85c-12.97,14.81-15.43,20.98-15.43,20.98s21.5-9.78,38.47-4.94
						c6.39,1.81,12.13,5.71,15.84,12.97c13.58,26.53,0,66.05-9.87,85.48c24.07-8.33,32.1-19.43,32.1-19.43
						S703.22,629.25,627.91,666.91z"/>
					<path class="st2" d="M544.55,841.44l13.61,13.74c-8.19,9.18-17.15,15-25.55,18.68c-17.56,7.71-32.61,6.01-32.61,6.01
						s-32.86,3.71-58.16-24.69l24.45-24.69c0,0-15.81-0.62-33.71,10.49c22.84-37.65,67.42-43.21,67.42-43.21s21.07,2.62,41.66,16.5
						c0,0,0.02,0.02,0.05,0.03c9.34,6.31,18.58,14.92,25.71,26.67c-4.92-3.06-9.69-5.22-14.01-6.75c-11.39-4.07-19.7-3.74-19.7-3.74
						l10.84,10.93C544.55,841.44,544.55,841.44,544.55,841.44z"/>
					<path class="st2" d="M597.72,773.76c1.29-32.72,13.52-35.18-5-74.08c-11.17-23.46-42.62-37.26-65.8-44.5c0,0,0,0-0.02-0.02
						c-15.24-4.76-26.91-6.7-26.91-6.7s-51.42,8.55-79.33,33.84c-5.62,5.1-10.28,10.87-13.39,17.38c-18.52,38.9-6.29,41.36-5,74.08
						c1.29,32.72-6.12,45.68,5.62,45.07c2.29-0.13,5.77-1.67,10.03-4.12c17.57-10.06,48.41-35.15,63.41-36.63
						c18.66-1.85,18.66-1.85,18.66-1.85s0,0,18.66,1.85c15.14,1.5,46.41,27.02,63.9,36.9c4.04,2.29,7.34,3.72,9.54,3.85
						C603.84,819.45,596.43,806.48,597.72,773.76z M471.46,745.57c-5.35,9.46-13.58,9.46-22.9-1.23c-2.74,3.3-4.24,16.45-4.24,16.45
						s0,0-6.59-15.22c-6.17-21.82,10.84-33.74,10.84-33.74C485.33,699.07,476.81,736.11,471.46,745.57z M562.28,745.57
						c-6.59,15.22-6.59,15.22-6.59,15.22s-1.5-13.16-4.24-16.45c-9.32,10.7-17.56,10.7-22.9,1.23c-5.35-9.46-13.87-46.5,22.9-33.74
						C551.44,711.83,568.44,723.76,562.28,745.57z"/>
				</g>
			</g>
			<path class="st1" d="M494.14,427.04c0,0,25.31,22.22,25.93,45.06c-25.93-1.85-25.93-1.85-25.93-1.85s28.39,43.54,25.93,76.09
				c-29.63-5.11-29.63-5.11-29.63-5.11s37.07,74.08,36.44,84.56c-16.68,11.11-36.44,9.88-36.44,9.88s39.35,37.65,33.26,62.34
				c37.11,3.7,63.76,36.44,39.93,62.79c15.7-9.7,15.7-9.7,15.7-9.7l-22.84,32.1c-42.59-14.2-68.6-5.76-68.6-5.76
				s16.12,49.59,12.73,64.4c10.19-11.73,12.66-17.28,12.66-17.28s1.53,56.17-13.28,64.2c44.76-14.81,66.21-21.42,70.68-49.85
				c37.04-10.02,49.21-45.21,47.75-47.67c-1.46-2.47-16.89-87.03-10.1-98.14c6.79-11.11,95.68-70.37,95.68-70.37l27.78-53.08
				l133.33-4.32c0,0,67.91-82.96,69.13-153.7s-85.8-122.84-85.8-122.84s25.31,71.11,0,115.8s-74.07,25.3-74.07,25.3
				s-66.1-91.92-107.4-141.1c-41.3-49.18-126.54-26.54-126.54-26.54L500,341.86L494.14,427.04z"/>
			<g>
				<g>
					<path class="st3" d="M383.2,500.25c-12.35,64.2,49.38,42.59,49.38,42.59L383.2,500.25z"/>
					<path class="st3" d="M616.8,500.25l-49.38,42.59C567.42,542.84,629.14,564.44,616.8,500.25z"/>
				</g>
			</g>
			<g>
				<g>
					<path class="st3" d="M627.91,666.91c53.52-37.07,57.58-118.51,57.58-118.51s-13.99,21.44-35.38,24.5
						c35.38-57.02,0-118.28,0-118.28l7.02-1.28c6.39,1.81,12.13,5.71,15.84,12.97c13.58,26.53,0,66.05-9.87,85.48
						c24.07-8.33,32.1-19.43,32.1-19.43S703.22,629.25,627.91,666.91z"/>
					<g>
						<path class="st3" d="M567.42,840.98c-4.92-3.06-9.69-5.22-14.01-6.75c-3.38-9.7-11.75-19.95-11.75-19.95s0.02,0.02,0.05,0.03
							C551.05,820.61,560.29,829.23,567.42,840.98z"/>
						<path class="st3" d="M544.55,841.44l13.61,13.74c-8.19,9.18-17.15,15-25.55,18.68C541.56,863.41,543.93,848.95,544.55,841.44z
							"/>
						<path class="st3" d="M537.18,565.3c-25.43-42.75-0.54-68.22-0.02-68.75c0.02-0.02,0.02-0.02,0.02-0.02
							c-0.02,0.03-0.02,0.06-0.03,0.09c-0.76,1.94-12.68,34.07,14.84,60.4c15.43,51.85,25.92,109.87,25.92,109.87
							s-5.84-6.01-15.87-13.01C558.76,634.9,550.4,592.44,537.18,565.3z"/>
						<path class="st3" d="M592.11,818.83c-2.21-0.13-5.51-1.56-9.54-3.85c0.03-0.24,0.05-0.47,0.05-0.71
							c14.81-3.3,14.81-31.28,4.94-79.28c-9.7-47.13-58.87-78.7-60.62-79.8c23.17,7.24,54.63,21.04,65.8,44.5
							c18.52,38.9,6.29,41.36,5,74.08C596.43,806.48,603.84,819.45,592.11,818.83z"/>
					</g>
				</g>
			</g>
			<path class="st3" d="M860.79,449.68c-20.57,31.26-68.3,32.92-68.3,32.92s0,0,12.34-13.17c-59.25-0.82-103.7-55.97-126.73-107
				c-23.05-51.03-75.21-95.03-75.21-95.03c40.71,7.95,71.25,57.66,97.25,98.28c46.91,78.4,96.92,102.47,129.62,77.78
				c65.62-51.63,33.17-138.53,32.13-141.29C884.31,344.75,881.35,418.41,860.79,449.68z"/>
			<path class="st5" d="M201.6,452.59c0,0,60.86,10.25,93.78-27.61s101.74-42.8,101.74-42.8s-59.77,23.93-63.06,35.83
				c-44.44,21.78-57.61,60.46-51.03,111.49c23.04-46.09,27.16-46.9,27.16-46.9s13.17-70.79,61.73-59.26s68.31,22.22,68.31,22.22
				s69.13-23.04,63.37-74.07s-30.48-96.29-30.48-96.29s-35.02-43.62-66.05-31.27s-74.66,29.63-95.23,80.66
				C291.27,375.6,222.73,455.82,201.6,452.59z"/>
			<path class="st5" d="M402.01,451.56c0,0,5.74,44.46,34.36,48.69c28.62,4.23,34.31-17.65,34.31-17.65s9.38,53.08,5.62,68.51
				c-21.05,18.52-25.37,64.2-25.37,64.2l17.28-11.11c0,0-18.74,31.47-15.43,44.28c-11.95,19.95-11.95,19.95-11.95,19.95
				s31.08-0.53,42.19,40.77c11.11,41.3-33.86,84.94-33.86,84.94s15.96,12.24,21.52,24.73c5.56,12.49,5.62,34.1,5.62,34.1l-8.09-3.09
				c0,0-9.26,25.14-14.81,23.99c35.8,8.72,58.18,11.05,58.18,11.05l14.17-52.33l1.12-26.55l31.29-11.72l23.02-27.16
				c0,0,0-22.22-7.41-42.59s-66.66-74.07-66.66-74.07l34.56-17.9l-9.05-41.36c0,0-15.15-75.17-8.91-90.98
				c6.25-15.81,25.38-46.91,25.38-46.91L500,409.75l-71.29,35.18L402.01,451.56z"/>
			<g>
				<path class="st0" d="M372.08,666.91c-75.31-37.65-67.28-134.56-67.28-134.56s1.67,2.32,5.77,5.62
					C310.83,557.73,315.56,633.72,372.08,666.91z"/>
				<path class="st0" d="M417.92,814.71c-4.26,2.45-7.75,3.99-10.03,4.12c-11.74,0.62-4.32-12.35-5.62-45.07
					c-1.29-32.72-13.52-35.18,5-74.08c3.11-6.51,7.78-12.29,13.39-17.38c-4.97,9.81-14.07,29.66-13.6,42.26
					c0.65,17.27,8.06,52.26,6.42,70.37C411.84,813.03,417.92,814.71,417.92,814.71z"/>
			</g>
		</g>
	</g>
</g>
</svg>
