<?xml version="1.0" encoding="utf-8"?>
<!-- Generator: Adobe Illustrator 24.2.3, SVG Export Plug-In . SVG Version: 6.00 Build 0)  -->
<svg version="1.1" id="Слой_1" xmlns="http://www.w3.org/2000/svg" xmlns:xlink="http://www.w3.org/1999/xlink" x="0px" y="0px"
	 viewBox="0 0 370 121" style="enable-background:new 0 0 370 121;" xml:space="preserve">
<style type="text/css">
	.st0{display:none;}
	.st1{display:inline;}
	.st2{display:inline;clip-path:url(#SVGID_2_);}
	.st3{fill-rule:evenodd;clip-rule:evenodd;fill:#373737;}
	.st4{fill-rule:evenodd;clip-rule:evenodd;fill:url(#SVGID_3_);}
	.st5{fill:#FFFFFF;}
	.st6{fill-rule:evenodd;clip-rule:evenodd;fill:url(#SVGID_4_);}
	.st7{fill:#292929;}
	.st8{fill:url(#SVGID_5_);}
	.st9{fill:#E7896E;}
	.st10{fill:#DD6642;}
	.st11{fill:#F2AD9A;}
	.st12{fill:#F4E74D;}
	.st13{fill:#EEDB00;}
	.st14{fill:#F9EE80;}
	.st15{fill:#FFAA75;}
	.st16{fill:#D34848;}
	.st17{fill:#FB695B;}
	.st18{fill:#ED5454;}
	.st19{fill:#FFC7A4;}
	.st20{fill:#F3E4B6;}
	.st21{fill:#2D2D2D;}
	.st22{fill:url(#SVGID_6_);}
</style>
<g class="st0">
	<defs>
		<rect id="SVGID_1_" width="369.5" height="120.4"/>
	</defs>
	<clipPath id="SVGID_2_" class="st1">
		<use xlink:href="#SVGID_1_"  style="overflow:visible;"/>
	</clipPath>
	<g class="st2">
		<path class="st3" d="M369.5,15.7c0-8.7-7-15.7-15.7-15.7H15.7C7,0,0,7,0,15.7v89.1c0,8.7,7,15.7,15.7,15.7h338.2
			c8.7,0,15.7-7,15.7-15.7V15.7H369.5z"/>
		
			<linearGradient id="SVGID_3_" gradientUnits="userSpaceOnUse" x1="18.9811" y1="61.353" x2="117.5813" y2="61.2998" gradientTransform="matrix(1 0 0 -1 0 121)">
			<stop  offset="0" style="stop-color:#1BD4F7"/>
			<stop  offset="1" style="stop-color:#83E335"/>
		</linearGradient>
		<path class="st4" d="M92.7,79.5C67.1,50.2,58.3,23.1,56,14.7c17.1-2.1,38.7-0.3,61.6,12.4C117.6,27.1,111.7,53.1,92.7,79.5z
			 M74,27.2c1,4,5.2,16.8,17.3,30.7c7.8-10.8,10.9-21.6,11.7-24.2c0.1-0.4,0.2-0.6,0.2-0.6C92.3,27,82.1,26.2,74,27.2z M57.2,55.1
			l10-5.9c5.4,9.6,13.1,21.1,23.5,33c-2,2.7-4.1,5.3-6.4,7.9c-8.3-7.6-18.1-19.7-22-25L54,71.3c0.1,0.1,0.1,0.2,0.2,0.3
			c2.2,2.8,12.7,16.7,23,26.1c-2.6,2.6-5.4,5.1-8.4,7.6c0,0-34.4-23.7-49.8-78.5c0,0,13.2-8.4,33.8-11.6c1,3.9,3.4,11.9,8.4,22.5
			c0.3,0.5,0.5,1,0.8,1.6c1.1,2.2,2.3,4.5,3.6,7l-10.1,6L57.2,55.1z M34.5,33.1c0.5,1.2,4.8,11.5,7.2,15.3l8.8-5.6
			c-1.4-2.2-4.7-9.6-6.4-13.7L34.5,33.1z"/>
		<path class="st5" d="M143.1,53.3h14.3c14.8,0,16.5,7.5,16.5,12.7c0,4.6-1.5,11.1-11.4,11.9L176,92.3h-11.5l-12.7-15.5v15.5h-8.6
			L143.1,53.3L143.1,53.3z M157.8,71.4c6.1,0,7.3-2.9,7.3-5.4c0-2.6-1.2-5.6-7.3-5.6h-6v11H157.8z"/>
		<path class="st5" d="M179.3,77.9V61.1h8.3v17.5c0,4.4,0.8,7.1,6,7.1c5.2,0,6.4-2.6,6.4-7.1V61.1h8.3v31.1h-3.5l-1.9-4.8
			c-2.1,3.2-5,5.3-11.9,5.3C181.3,92.7,179.3,86.6,179.3,77.9z"/>
		<path class="st5" d="M212.8,94.4h8.8c0.2,2.6,0.8,4.6,7.3,4.6c5.5,0,6.7-1.6,6.7-2.8c0-1.6-0.7-2.2-8.2-3.3
			c-8.8-1.3-14.3-2.4-14.3-7.3c0-3.3,2.7-4.9,6.8-5.6c-4.4-1.6-6.1-4.8-6.1-8.6c0-5,3-10.2,15.9-10.2h13.9v3.6l-5,1.8
			c2.3,1.1,3.8,3.4,3.8,7.1c0,8.8-8.9,9.2-14.4,9.5c-4.5,0.2-6.3,0.2-6.3,1.5c0,0.9,1.2,1.2,8.9,2.4c6.3,1,13.6,2,13.6,8.5
			c0,4.5-3,9.9-16.4,9.9C216.1,105.3,212.8,101,212.8,94.4z M228.1,76.9c4.5,0,5.5-1.9,5.5-4.7c0-2.6-1-4.5-5.6-4.5
			c-4.5,0-5.6,1.8-5.6,4.4C222.5,74.9,223.5,76.9,228.1,76.9z"/>
		<path class="st5" d="M249,53.3h15.1c11.9,0,18.2,6.8,18.2,19.2c0,12.3-6.8,19.7-18.9,19.7H249V53.3z M261.9,85.1
			c7.9,0,12-2.7,12-12.6c-0.1-10-3.8-12-11.7-12h-4.5v24.6H261.9z"/>
		<path class="st5" d="M286.9,76.6c0-8.2,3.4-16,15.5-16c12,0,15.5,7.8,15.5,16c0,8.4-3.5,16.1-15.6,16.1
			C290.2,92.7,286.9,84.9,286.9,76.6z M302.2,85.6c5.7,0,7.4-3.8,7.4-9c0-4.9-1.5-8.9-7.3-8.9c-5.7,0-7.3,3.8-7.3,8.9
			C295.1,81.8,296.7,85.6,302.2,85.6z"/>
		<path class="st5" d="M321.3,76.7c0-8.3,3.3-16.1,15.7-16.1c9.9,0,14.5,5.2,14.5,12.9h-8.6c-0.5-3.8-2-6-6.1-6
			c-5.4,0-7.4,3.7-7.4,9.1c0,5.2,1.9,9,7.4,9c4.1,0,5.6-2.2,6.1-5.6l8.6,0.1c0,7.6-4.5,12.7-14.4,12.7
			C324.6,92.7,321.3,85.1,321.3,76.7z"/>
		
			<linearGradient id="SVGID_4_" gradientUnits="userSpaceOnUse" x1="143.1765" y1="89.1764" x2="351.6235" y2="88.1326" gradientTransform="matrix(1 0 0 -1 0 121)">
			<stop  offset="0" style="stop-color:#83E335"/>
			<stop  offset="1" style="stop-color:#1BD4F7"/>
		</linearGradient>
		<path class="st6" d="M351.6,27.1c0-2.9-2.3-5.2-5.2-5.2h-198c-2.9,0-5.2,2.3-5.2,5.2v10.4c0,2.9,2.3,5.2,5.2,5.2h198
			c2.9,0,5.2-2.3,5.2-5.2V27.1z"/>
		<path class="st7" d="M157,31.9v-3.6h2c2,0,2.4,1,2.4,1.8s-0.4,1.7-2.4,1.7L157,31.9L157,31.9z M154.2,38.6h2.8v-5.1l4.1,5.1h3.7
			l-4.4-4.7c3.2-0.2,3.7-2.4,3.7-3.9c0-1.7-0.6-4.1-5.4-4.1H154v12.7H154.2z"/>
		<path class="st7" d="M172.4,38.6h9v-2.3h-6.2v-3h5.6V31h-5.6v-2.7h6.2v-2.4h-9V38.6z"/>
		<path class="st7" d="M192.6,38.6h3.8l4.6-12.7h-3l-3.4,10.6l-3.5-10.6h-3L192.6,38.6z"/>
		<path class="st7" d="M211.1,25.9h-2.8v12.7h2.8V25.9z"/>
		<path class="st7" d="M219.8,38.6h9v-2.3h-6.2v-3h5.5V31h-5.5v-2.7h6.2v-2.4h-9V38.6z"/>
		<path class="st7" d="M239.3,38.6h3.5l2.6-9.2l2.7,9.2h3.4l3.7-12.7h-2.9l-2.4,9.3l-2.7-9.3h-3.4l-2.7,9.3l-2.4-9.3h-3L239.3,38.6z
			"/>
		<path class="st7" d="M262.6,38.6h9v-2.3h-6.2v-3h5.6V31h-5.6v-2.7h6.2v-2.4h-9V38.6z"/>
		<path class="st7" d="M282.6,36.3v-8h1.5c2.6,0,3.8,0.7,3.8,3.9s-1.3,4.1-3.9,4.1H282.6z M279.8,38.6h4.7c3.9,0,6.1-2.4,6.1-6.4
			c0-4.1-2.1-6.3-5.9-6.3h-4.9V38.6z"/>
		<path class="st7" d="M314.7,31.1v-2.8h2.1c1.9,0,2.1,0.6,2.1,1.4c0,0.8-0.3,1.4-2.2,1.4H314.7z M314.7,36.3v-3.1h2.3
			c2,0,2.3,0.7,2.3,1.5c0,0.8-0.4,1.5-2.3,1.5h-2.3V36.3z M311.9,38.6h5c4,0,5.3-1.8,5.3-3.8c0-1.3-0.5-2.6-2-3
			c1.1-0.5,1.6-1.4,1.6-2.7c0-1.8-1.3-3.2-4.9-3.2H312v12.7H311.9z"/>
		<path class="st7" d="M332.7,38.6h3v-3.8l4.8-8.9h-3l-3.2,6.5l-3.2-6.5h-2.9l4.5,8.9V38.6z"/>
	</g>
</g>
<linearGradient id="SVGID_5_" gradientUnits="userSpaceOnUse" x1="3.482" y1="60.7234" x2="366" y2="60.7234">
	<stop  offset="0" style="stop-color:#3C201E"/>
	<stop  offset="0.3212" style="stop-color:#241312"/>
	<stop  offset="0.7467" style="stop-color:#0A0505"/>
	<stop  offset="1" style="stop-color:#000000"/>
</linearGradient>
<path class="st8" d="M351,120H18.5c-8.3,0-15-6.7-15-15V16.4c0-8.3,6.7-15,15-15H351c8.3,0,15,6.7,15,15V105
	C366,113.3,359.3,120,351,120z"/>
<g>
	<path class="st9" d="M103.1,7c3.4,0.6,5.7,3.9,5.1,7.3c-0.6,3.4-12.4,50.3-15.8,49.7c-3.4-0.6,2.8-48.5,3.4-52
		C96.4,8.5,99.6,6.2,103.1,7z"/>
	<path class="st10" d="M93.8,27.5c-1.8,15.2-3.5,36.1-1.4,36.5c2.4,0.4,8.7-21.5,12.4-36.3C101.1,27.9,97.2,27.9,93.8,27.5z"/>
	<path class="st11" d="M130.7,16.2c2.8,2,3.5,5.9,1.6,8.9c-2,2.8-32.1,40.6-34.9,38.6c-3-2.2,22.5-43.2,24.4-45.9
		C124,14.9,127.9,14.3,130.7,16.2z"/>
	<path class="st9" d="M97.2,63.5c2.2,1.6,20.3-20.3,29.8-31.7c-2.4-2.6-5.7-4.9-10.4-5.5C108.6,39.3,95.2,62.2,97.2,63.5z"/>
	<path class="st12" d="M106.1,37.3c11,0,20.1,9.1,20.1,20.1s-9.1,20.1-20.1,20.1s-20.3-9.1-20.3-20.1S94.8,37.3,106.1,37.3z"/>
	<path class="st13" d="M95.6,57.4c0-5.7,4.7-10.4,10.4-10.4c5.7,0,10.4,4.7,10.4,10.4s-4.7,10.4-10.4,10.4
		C100.1,67.9,95.6,63.2,95.6,57.4z"/>
	<path class="st14" d="M72.5,30c15.2,0,27.4,12.2,27.4,27.4S87.7,84.8,72.5,84.8S45.1,72.6,45.1,57.4S57.4,30,72.5,30z"/>
	<path class="st12" d="M55,57.4c0-9.7,7.9-17.7,17.7-17.7c9.7,0,17.7,7.9,17.7,17.7s-7.9,17.7-17.7,17.7C62.9,75,55,67.1,55,57.4z"
		/>
	<path class="st13" d="M64.7,57.4c0-4.3,3.5-7.9,7.9-7.9s7.9,3.5,7.9,7.9s-3.5,7.9-7.9,7.9S64.7,61.8,64.7,57.4z"/>
	<path class="st15" d="M131.1,57.4c7.3,0,13.6,4.3,16.4,11l4.3,10.6c1.4,3.2-1,6.7-4.5,6.7h-12l-19.5-28.4
		C115.7,57.4,131.1,57.4,131.1,57.4z"/>
	<path class="st16" d="M45.7,57.8c-6.3,0-10.8,5.9-9.3,11.8l8.9,33.3c1.6,5.9,6.9,10.1,13.2,10.1h42.4l14.4-55L45.7,57.8L45.7,57.8z
		"/>
	<path class="st17" d="M129.3,57.4h-69L74.9,113h42.6c6.1,0,11.6-4.1,13.2-10.3l8.7-32.7C141,63.7,136,57.4,129.3,57.4z"/>
	<path class="st18" d="M116.5,98.4c-0.4,5.1-1.8,10.4-3.2,14.6h4.1c6.1,0,11.6-4.1,13.2-10.3l8.7-32.5c1.8-6.5-3.2-12.8-9.9-12.8
		h-23.3v28C106.3,85.8,117.7,87,116.5,98.4z"/>
	<path class="st19" d="M41.4,57.6c-4.9,0-9.3,3-11.2,7.5l-5.7,14.2c-1.4,3.2,1,6.7,4.5,6.7h6.9c3.4,0,6.3-1.6,8.1-4.3l16.6-24.2
		L41.4,57.6L41.4,57.6z"/>
	<path class="st20" d="M60.3,57.2l17.5,23.7c2.4,3.2,6.1,4.9,10.1,4.9h27c3.9,0,7.7-1.8,10.1-4.9l15.6-20.7c-2.8-2-6.3-3-9.9-3
		C130.7,57.2,60.3,57.2,60.3,57.2z"/>
	<g>
		<path class="st21" d="M82.6,101.6l-0.8-3.7c-0.4-1.2,0.4-2.6,1.8-2.8c1.2-0.4,2.6,0.4,2.8,1.8l1,3.7c0.4,1.2-0.4,2.6-1.8,2.8
			C84.2,103.6,83,102.8,82.6,101.6z"/>
		<path class="st21" d="M114.3,101.4l-0.6-3.7c-0.2-1.2,0.6-2.4,1.8-2.8c1.2-0.2,2.4,0.6,2.8,1.8l0.6,3.7c0.2,1.2-0.6,2.4-1.8,2.8
			C115.7,103.6,114.5,102.8,114.3,101.4z"/>
		<path class="st21" d="M100.3,105.7c2.2,0,3.9-2.2,3.9-4.9c0-2.8-1.8-4.9-3.9-4.9s-3.9,2.2-3.9,4.9
			C96.4,103.6,98.2,105.7,100.3,105.7z"/>
	</g>
</g>
<linearGradient id="SVGID_6_" gradientUnits="userSpaceOnUse" x1="165.5957" y1="34.367" x2="346.7021" y2="34.367">
	<stop  offset="0" style="stop-color:#D34848"/>
	<stop  offset="0.1717" style="stop-color:#D8594C"/>
	<stop  offset="0.4956" style="stop-color:#E07551"/>
	<stop  offset="0.7823" style="stop-color:#E58555"/>
	<stop  offset="1" style="stop-color:#E78B56"/>
</linearGradient>
<path class="st22" d="M334.2,60.5H178.1c-6.9,0-12.5-5.6-12.5-12.5V20.7c0-6.9,5.6-12.5,12.5-12.5h156.2c6.9,0,12.5,5.6,12.5,12.5
	V48C346.7,54.9,341.1,60.5,334.2,60.5z"/>
<g>
	<g>
		<path class="st5" d="M208.4,33v9.7c0,2.7-0.5,5-1.4,7c-0.9,2-2.3,3.5-4.1,4.5c-1.8,1.1-3.8,1.6-6.2,1.6c-2.4,0-4.5-0.5-6.3-1.5
			c-1.8-1-3.2-2.4-4.1-4.3c-1-1.9-1.4-4.1-1.4-6.6v-17c0-2.7,0.5-5,1.4-7c0.9-2,2.3-3.5,4.1-4.5s3.8-1.6,6.2-1.6
			c2.3,0,4.3,0.5,5.9,1.4c1.7,1,3,2.4,3.9,4.2c1,1.8,1.5,4.1,1.7,6.7h-5.8c-0.1-1.5-0.4-2.7-0.9-3.8c-0.5-1-1.2-1.8-2-2.3
			c-0.8-0.5-1.8-0.8-2.8-0.8c-1.3,0-2.4,0.3-3.3,0.9c-0.9,0.6-1.7,1.5-2.2,2.6c-0.5,1.1-0.8,2.5-0.8,4v17c0,1.4,0.3,2.6,0.8,3.6
			s1.3,1.8,2.2,2.4c1,0.6,2.1,0.8,3.4,0.8c1.3,0,2.4-0.3,3.3-0.9s1.7-1.5,2.2-2.6c0.5-1.1,0.8-2.5,0.8-4v-4.5h-6.3V33H208.4z"/>
		<path class="st5" d="M215.7,13.7h5.4v41.6h-5.4V13.7z M218.1,32.4h10.4c1,0,1.8-0.2,2.6-0.7c0.7-0.4,1.3-1.1,1.7-1.9
			c0.4-0.8,0.6-1.8,0.6-2.9v-2.1c0-1.1-0.2-2.1-0.6-3c-0.4-0.9-1-1.5-1.7-2c-0.7-0.5-1.6-0.7-2.6-0.7h-10.4v-5.3h10.1
			c2.2,0,4.1,0.4,5.7,1.3s2.9,2.1,3.8,3.7c0.9,1.6,1.3,3.5,1.3,5.7v2.4c0,2.2-0.4,4.1-1.3,5.8c-0.9,1.6-2.1,2.9-3.8,3.8
			c-1.6,0.9-3.5,1.3-5.7,1.3h-10.1V32.4z M226.9,36.5l5.2-1.3l8.2,20.2h-6.1L226.9,36.5z"/>
		<path class="st5" d="M246.5,13.8h5.4v41.6h-5.4V13.8z M249.2,13.8h18.6v5.3h-18.6V13.8z M249.2,32h16.4v5.3h-16.4V32z M249.2,50
			h18.6v5.3h-18.6V50z"/>
		<path class="st5" d="M273.8,13.8h5.4v41.6h-5.4V13.8z M276.5,13.8h18.6v5.3h-18.6V13.8z M276.5,32h16.4v5.3h-16.4V32z M276.5,50
			h18.6v5.3h-18.6V50z"/>
		<path class="st5" d="M301.1,13.8h4.8l15.2,32l-0.8,0.7V13.8h5.2v41.5h-4.9l-15.1-31.2l0.7-0.7v32h-5.2V13.8z"/>
	</g>
</g>
<g>
	<g>
		<path class="st5" d="M194.8,67.1h6.5v48h-6.5V67.1z M198.1,67.1h22.1v6.2h-22.1V67.1z M198.1,88.6h19.5v6.1h-19.5V88.6z"/>
		<path class="st5" d="M226.2,67.1h6.5v48h-6.5V67.1z M229.5,108.9h22v6.2h-22V108.9z"/>
		<path class="st5" d="M268.9,67.1h5.7l14.4,48h-7l-10.3-38.4L261.5,115h-7L268.9,67.1z M262.1,98.4h19.7v6.1h-19.7V98.4z"/>
		<path class="st5" d="M322.8,89.2v11.2c0,3.1-0.6,5.8-1.7,8c-1.1,2.3-2.8,4-4.9,5.2s-4.6,1.8-7.5,1.8c-2.9,0-5.5-0.6-7.6-1.7
			c-2.2-1.1-3.8-2.8-5-4.9c-1.2-2.2-1.7-4.7-1.7-7.6V81.7c0-3.1,0.6-5.8,1.7-8c1.1-2.3,2.8-4,4.9-5.2s4.6-1.8,7.5-1.8
			c2.8,0,5.2,0.6,7.2,1.6c2,1.1,3.6,2.7,4.8,4.8c1.2,2.1,1.8,4.7,2,7.8h-7c-0.1-1.7-0.5-3.2-1.1-4.4c-0.6-1.2-1.4-2.1-2.4-2.7
			c-1-0.6-2.1-0.9-3.4-0.9c-1.5,0-2.9,0.4-4,1.1c-1.1,0.7-2,1.7-2.6,3.1s-0.9,2.9-0.9,4.7v19.6c0,1.6,0.3,3,0.9,4.2s1.5,2.1,2.7,2.8
			c1.2,0.6,2.5,1,4.1,1c1.5,0,2.9-0.3,4-1c1.1-0.7,2-1.7,2.6-3s0.9-2.9,0.9-4.7v-5.1h-7.6v-6.2H322.8z"/>
	</g>
</g>
</svg>
